<svg xmlns="http://www.w3.org/2000/svg" viewBox="0 0 400 300" width="406" height="306" class="illustration styles_illustrationTablet__1DWOa"><g id="_47_running_outline" data-name="#47_running_outline"><path d="M194,197.91l-31.41,14.4-12.76,5.85c-.8-1.17-4-8.36-5.7-10.7l12-6.51L186,184.78c3.45-1.74,9.33.29,11.07,3.74A7,7,0,0,1,194,197.91Z" fill="#ffc9b0"></path><path d="M149.78,219.17a1,1,0,0,1-.82-.44c-.35-.5-.94-1.69-2-3.74a68.63,68.63,0,0,0-3.74-7,1.06,1.06,0,0,1-.16-.81,1,1,0,0,1,.5-.65l41.91-22.68a9.15,9.15,0,0,1,7-.15,9.42,9.42,0,0,1,5.47,4.31,8,8,0,0,1-3.56,10.75h0L150.2,219.07A.9.9,0,0,1,149.78,219.17Zm-4.28-11.35c1,1.65,2.25,4.18,3.29,6.28.53,1.07,1,2.09,1.4,2.78L193.51,197a6,6,0,0,0,2.65-8,7.5,7.5,0,0,0-4.32-3.32,7.22,7.22,0,0,0-5.41,0ZM194,197.91h0Z" fill="#093f68"></path><path d="M162.54,212.31l-12.76,5.85c-.8-1.17-4-8.36-5.7-10.7l12-6.51Z" fill="#f56132"></path><path d="M149.78,219.17a1,1,0,0,1-.82-.44c-.35-.5-.94-1.69-2-3.74a68.63,68.63,0,0,0-3.74-7,1.06,1.06,0,0,1-.16-.81,1,1,0,0,1,.5-.65l12-6.51a1,1,0,0,1,1.35.39l1,1.69,5.47,9.67a1,1,0,0,1,.08.8,1,1,0,0,1-.54.6l-12.75,5.85A.9.9,0,0,1,149.78,219.17Zm-4.28-11.35c1,1.65,2.25,4.18,3.29,6.28.53,1.07,1,2.09,1.4,2.78l10.94-5c-1.52-2.7-3.28-5.8-4.94-8.73l-.47-.83Z" fill="#093f68"></path><path d="M144.08,207.46,136.29,211l13.63,22.08a.51.51,0,0,0,1-.2L151,217.6Z" fill="#00c0d0"></path><path d="M150.35,234.36a1.5,1.5,0,0,1-1.29-.73l-13.62-22.08a1,1,0,0,1-.11-.81,1,1,0,0,1,.54-.62l7.8-3.57a1,1,0,0,1,1.24.35L151.85,217a1,1,0,0,1,.18.58l-.16,15.31a.49.49,0,0,1,0,.12,1.5,1.5,0,0,1-1.19,1.29Zm.41-1.78h0Zm-13-21.12,12.16,19.7L150,217.9l-6.29-9.18Z" fill="#093f68"></path><path d="M286.34,109.93c-.94-.63-2.32,2.14-2.32,2.14a7.45,7.45,0,0,0-1.08-1.54c-.49-.44-2.39,1.63-3.1,2.58s-2.13,5.76-2.13,5.76l-19.23,16.78-16.34-10.23A6.72,6.72,0,0,0,235,136.81l20.88,13.08a6.67,6.67,0,0,0,4.55,1,6.75,6.75,0,0,0,3.79-1.91l20.3-24.19s5.87-4.61,6.41-7.84S287.28,110.57,286.34,109.93Z" fill="#ffc9b0"></path><path d="M259.46,151.92a7.66,7.66,0,0,1-4.1-1.18l-20.88-13.08a7.72,7.72,0,1,1,8.19-13.09l15.71,9.84,18.46-16.11c.37-1.24,1.49-4.83,2.2-5.78,0,0,2.16-2.9,3.59-3a1.31,1.31,0,0,1,1,.31,4,4,0,0,1,.39.42,3.29,3.29,0,0,1,1.62-1.3,1.56,1.56,0,0,1,1.28.2c.58.4,5.71,4,5,8-.57,3.38-5.77,7.65-6.7,8.39L265,149.58a7.74,7.74,0,0,1-4.4,2.26A8.59,8.59,0,0,1,259.46,151.92ZM238.58,125.4a5.71,5.71,0,0,0-4.85,2.68,5.71,5.71,0,0,0,1.81,7.88l20.88,13.09a5.72,5.72,0,0,0,7.1-.82l20.25-24.13a.67.67,0,0,1,.15-.14c1.54-1.22,5.64-4.89,6-7.21s-2.3-4.67-3.95-5.83a6.56,6.56,0,0,0-1.09,1.59,1,1,0,0,1-.89.56,1,1,0,0,1-.89-.53,9.46,9.46,0,0,0-.55-.89,12.63,12.63,0,0,0-1.95,2.06,33.57,33.57,0,0,0-2,5.44.91.91,0,0,1-.3.47l-19.24,16.79a1,1,0,0,1-1.18.09l-16.34-10.23A5.68,5.68,0,0,0,238.58,125.4Z" fill="#093f68"></path><polygon points="189.44 152.73 172.7 191.01 193.89 200 216.2 169.3 189.44 152.73" fill="#093f68"></polygon><path d="M193.89,201a.91.91,0,0,1-.39-.08l-21.19-9a1,1,0,0,1-.54-.55,1,1,0,0,1,0-.77l16.74-38.28a1,1,0,0,1,.62-.56,1,1,0,0,1,.82.11l26.76,16.57a1,1,0,0,1,.45.65,1,1,0,0,1-.17.78L194.7,200.59A1,1,0,0,1,193.89,201ZM174,190.49l19.53,8.28,21.21-29.19L189.9,154.19Z" fill="#093f68"></path><path d="M211.71,116.52h19a8.57,8.57,0,0,1,8.57,8.57v36.2a0,0,0,0,1,0,0H203.14a0,0,0,0,1,0,0V125.1A8.57,8.57,0,0,1,211.71,116.52Z" transform="translate(122.42 -102.89) rotate(35.65)" fill="#00c0d0"></path><path d="M222.82,168.62a1,1,0,0,1-.58-.19l-29.35-21.05a1,1,0,0,1-.23-1.39l21.1-29.41a9.56,9.56,0,0,1,13.35-2.2l15.42,11.06a9.56,9.56,0,0,1,2.2,13.35l-21.1,29.42A1,1,0,0,1,222.82,168.62Zm-27.95-22.28,27.72,19.89,20.52-28.6a7.59,7.59,0,0,0-1.74-10.57L226,116a7.57,7.57,0,0,0-10.57,1.74Z" fill="#093f68"></path><path d="M246,66.8a19.59,19.59,0,0,1,7,1.94c2.46,1.33,4.87,2.88,7.61,3.43s6-.18,7.45-2.55c1.78,3.87,1.13,8.41-.14,12.47a16.44,16.44,0,0,1-1.41,3.41,21.34,21.34,0,0,1-2.08,2.75c-1.11,1.3-2.31,2.4-2.78,4a34.62,34.62,0,0,1-2.31,5.52c-2,4-4.17,7.86-6.25,11.79l-36-10.38c.58-3.53,1.3-7,2.11-10.54a26.42,26.42,0,0,0,1.08-6.78,12,12,0,0,1,1.79-7.29c1.5-2.2,4.4-3.63,6.91-2.73a16.06,16.06,0,0,1,8.79-4.82A29.49,29.49,0,0,1,246,66.8Z" fill="#725858"></path><path d="M253.16,110.61a1,1,0,0,1-.28,0l-36-10.38a1,1,0,0,1-.71-1.12c.56-3.4,1.26-6.87,2.12-10.61l.24-1a21.13,21.13,0,0,0,.82-5.55,12.84,12.84,0,0,1,2-7.88c1.53-2.23,4.5-4,7.44-3.29a17,17,0,0,1,8.91-4.67,30.63,30.63,0,0,1,8.43-.29h0a20.55,20.55,0,0,1,7.42,2.06l1.28.71a21.08,21.08,0,0,0,6,2.62c2.18.44,5.12,0,6.4-2.1a1,1,0,0,1,.92-.47,1,1,0,0,1,.84.59c1.61,3.5,1.58,7.82-.09,13.18A17.81,17.81,0,0,1,267.44,86a20.52,20.52,0,0,1-2.18,2.88c-.2.24-.41.47-.61.7a7.86,7.86,0,0,0-2,3,34.23,34.23,0,0,1-2.3,5.53l-.07.14c-1.29,2.65-2.71,5.26-4.09,7.79-.73,1.34-1.46,2.68-2.18,4A1,1,0,0,1,253.16,110.61ZM218.32,98.52l34.34,9.9c.59-1.11,1.2-2.23,1.8-3.34,1.37-2.51,2.78-5.1,4-7.7l.07-.15a32.71,32.71,0,0,0,2.18-5.2,9.75,9.75,0,0,1,2.39-3.77l.59-.66a19,19,0,0,0,2-2.61,15.2,15.2,0,0,0,1.33-3.2c1.28-4.09,1.52-7.46.74-10.24a8.78,8.78,0,0,1-7.3,1.6,23.13,23.13,0,0,1-6.63-2.83l-1.26-.7a18.35,18.35,0,0,0-6.67-1.83h0a29.33,29.33,0,0,0-7.87.26,15.06,15.06,0,0,0-8.24,4.52,1,1,0,0,1-1.07.26c-2.15-.77-4.57.64-5.75,2.35a11,11,0,0,0-1.61,6.7A22.89,22.89,0,0,1,220.5,88l-.23,1C219.49,92.29,218.85,95.44,218.32,98.52Z" fill="#093f68"></path><path d="M230.82,120.27h6.94a0,0,0,0,1,0,0v4a2.95,2.95,0,0,1-2.95,2.95h-1a2.95,2.95,0,0,1-2.95-2.95v-4A0,0,0,0,1,230.82,120.27Z" transform="translate(43.47 -60.09) rotate(16.09)" fill="#ffc9b0"></path><path d="M234.65,128.34a3.85,3.85,0,0,1-1.1-.16l-1-.29a3.94,3.94,0,0,1-2.7-4.89l1.1-3.83a1,1,0,0,1,1.24-.69l6.67,1.93a1,1,0,0,1,.6.47,1,1,0,0,1,.09.76l-1.11,3.84a3.9,3.9,0,0,1-1.88,2.36A4,4,0,0,1,234.65,128.34Zm-2.05-7.66-.83,2.88A2,2,0,0,0,233.1,126l1,.29h0a1.87,1.87,0,0,0,1.48-.17,2,2,0,0,0,.93-1.16l.83-2.88Z" fill="#093f68"></path><ellipse cx="257.32" cy="108.75" rx="5.81" ry="5.2" transform="translate(81.51 325.85) rotate(-73.91)" fill="#ffc9b0"></ellipse><path d="M257,115.52a5.74,5.74,0,0,1-1.58-.22c-3.28-1-5.11-4.66-4.07-8.26a7.13,7.13,0,0,1,3-4.1,5.83,5.83,0,0,1,8.5,2.45,7.16,7.16,0,0,1,.38,5.08h0A6.73,6.73,0,0,1,257,115.52Zm.62-11.53a4.14,4.14,0,0,0-2.17.64,5.2,5.2,0,0,0-2.18,3c-.73,2.55.48,5.15,2.71,5.79s4.63-.91,5.37-3.46h0a5.16,5.16,0,0,0-.26-3.66,4,4,0,0,0-2.44-2.13A3.65,3.65,0,0,0,257.63,104Z" fill="#093f68"></path><path d="M234.59,121.92c-11-3.17-16.88-19.54-13.77-30.33l3.54,2.51,5.49-12.69S242.73,85,248.53,86.7c10.66,3,15.64,1.43,15.64,1.43l-5.63,19.52C255.42,118.44,245.56,125.08,234.59,121.92Z" fill="#ffc9b0"></path><path d="M240.11,123.71a21.17,21.17,0,0,1-5.8-.83h0c-11.5-3.32-17.66-20.42-14.45-31.57a1,1,0,0,1,.63-.67,1,1,0,0,1,.91.13l2.53,1.8,5-11.56a1,1,0,0,1,1.19-.57s12.89,3.64,18.69,5.3c10.15,2.9,15,1.45,15.06,1.43a1,1,0,0,1,1.26,1.23l-5.63,19.53C256.67,117.72,249,123.71,240.11,123.71ZM234.87,121c10,2.89,19.6-2.82,22.71-13.59l5.18-18c-2.34.28-7.11.36-14.5-1.75-4.91-1.4-14.89-4.22-17.84-5L225.27,94.5a1,1,0,0,1-.65.56.94.94,0,0,1-.84-.15l-2.35-1.66c-2.63,12,5,25.28,13.44,27.71Z" fill="#093f68"></path><ellipse cx="236" cy="98.49" rx="1.88" ry="1.88" transform="translate(75.95 297.95) rotate(-73.91)" fill="#093f68"></ellipse><circle cx="253.42" cy="103.52" r="1.88" fill="#093f68"></circle><path d="M245.74,106.93h-.05a9.6,9.6,0,0,1-3.4-1,1,1,0,1,1,.88-1.79,9.3,9.3,0,0,0,2.18.72,16.17,16.17,0,0,0-.38-4.19,1,1,0,0,1,.78-1.17,1,1,0,0,1,1.18.78c.36,1.81.84,5-.09,6.11A1.43,1.43,0,0,1,245.74,106.93Z" fill="#093f68"></path><path d="M241.57,96.45a1.84,1.84,0,0,1-.69-.13l-8.44-3.09a2,2,0,1,1,1.38-3.75l8.43,3.09a2,2,0,0,1-.68,3.88Z" fill="#093f68"></path><path d="M257.36,98.32h-.05l-9-.22a2,2,0,0,1-1.95-2,2,2,0,0,1,2-2l9,.22a2,2,0,0,1,0,4Z" fill="#093f68"></path><path d="M224.36,94.1s-3.83-4.68-7.62-1.17-3.42,11.48,5.09,11.65" fill="#ffc9b0"></path><path d="M221.83,105.58h0c-3.92-.08-6.8-1.79-7.9-4.7a8.15,8.15,0,0,1,2.15-8.68,5.27,5.27,0,0,1,4.06-1.56c2.83.19,4.92,2.72,5,2.83a1,1,0,0,1-.14,1.4,1,1,0,0,1-1.41-.14h0a6.12,6.12,0,0,0-3.6-2.1,3.3,3.3,0,0,0-2.56,1,6.2,6.2,0,0,0-1.65,6.5c.82,2.14,3,3.35,6.08,3.41a1,1,0,0,1,0,2Z" fill="#093f68"></path><path d="M240.44,114.82a1,1,0,0,1-.24,0c-3.41-.84-9.64-4.28-8.8-11.28a1,1,0,0,1,2,.24c-.84,7,7,9,7.29,9.1a1,1,0,0,1-.24,2Z" fill="#093f68"></path><path d="M193.47,146.57S182.89,159.79,185,168.3s41.91,25.5,41.91,25.5l16.45-13.86Z" fill="#093f68"></path><path d="M226.91,194.8a1,1,0,0,1-.39-.08C222.4,193,186.2,177.28,184,168.54s8.22-22,8.66-22.59a1,1,0,0,1,1.34-.21l49.88,33.36a1,1,0,0,1,.45.78,1,1,0,0,1-.36.82l-16.45,13.86A1,1,0,0,1,226.91,194.8ZM193.7,147.93c-2.11,2.83-9.43,13.29-7.73,20.13,1.61,6.47,29.43,19.69,40.77,24.58l15-12.61Z" fill="#093f68"></path><path d="M241.43,189.64,212,207.79l-11.94,7.37c-.94-1.06-5-7.8-7-9.92l11.14-7.94,27.66-19.72c3.21-2.15,9.29-.85,11.45,2.36A7,7,0,0,1,241.43,189.64Z" fill="#ffc9b0"></path><path d="M200.08,216.16a1,1,0,0,1-.74-.33,41.11,41.11,0,0,1-2.41-3.48,69.25,69.25,0,0,0-4.56-6.44,1,1,0,0,1,.16-1.49l38.8-27.65c3.66-2.46,10.38-1.08,12.86,2.61A8,8,0,0,1,242,190.47l0,0L200.61,216A1,1,0,0,1,200.08,216.16Zm-5.51-10.73c1.18,1.51,2.74,3.86,4,5.82.66,1,1.29,1.95,1.73,2.58l40.56-25a6,6,0,0,0,1.64-8.31c-1.87-2.78-7.33-3.91-10.06-2.07Zm46.86-15.79h0Z" fill="#093f68"></path><path d="M212,207.79l-11.94,7.37c-.94-1.06-5-7.8-7-9.92l11.14-7.94C206.8,200.74,209.7,204.64,212,207.79Z" fill="#f56132"></path><path d="M200.08,216.16a1,1,0,0,1-.74-.33,41.11,41.11,0,0,1-2.41-3.48,69.25,69.25,0,0,0-4.56-6.44,1,1,0,0,1,.16-1.49l11.14-7.93a1,1,0,0,1,1.38.22l1,1.4c2.28,3.06,4.72,6.36,6.74,9.08a1.05,1.05,0,0,1,.18.79,1,1,0,0,1-.46.66L200.61,216A1,1,0,0,1,200.08,216.16Zm-5.51-10.73c1.18,1.51,2.74,3.86,4,5.82.66,1,1.29,1.95,1.73,2.58l10.24-6.32c-1.87-2.54-4-5.47-6.08-8.21l-.46-.61Z" fill="#093f68"></path><rect x="218.4" y="81.04" width="47.84" height="7.51" rx="2.25" transform="translate(29.37 -58.59) rotate(14.67)" fill="#00c0d0"></rect><path d="M262.91,95a3.37,3.37,0,0,1-.83-.1l-41.93-11a3.25,3.25,0,0,1-2.32-4L218.6,77a3.25,3.25,0,0,1,4-2.32l41.93,11a3.24,3.24,0,0,1,2.32,4l-.76,2.92A3.25,3.25,0,0,1,262.91,95ZM221.74,76.61a1.17,1.17,0,0,0-.63.17,1.27,1.27,0,0,0-.58.76l-.76,2.91a1.26,1.26,0,0,0,.89,1.53l41.93,11h0a1.22,1.22,0,0,0,1-.13,1.25,1.25,0,0,0,.57-.76l.77-2.91a1.26,1.26,0,0,0-.89-1.53l-41.93-11A1.22,1.22,0,0,0,221.74,76.61Z" fill="#093f68"></path><path d="M193.11,205.24l-7.3,4.5L202.05,230a.51.51,0,0,0,.92-.31l-1.72-15.22Z" fill="#00c0d0"></path><path d="M202.45,231.18a1.5,1.5,0,0,1-1.19-.58L185,210.36a1,1,0,0,1,.26-1.48l7.3-4.49a1,1,0,0,1,1.27.19l8.14,9.21a.92.92,0,0,1,.24.55L204,229.55v.12a1.5,1.5,0,0,1-1,1.43A1.8,1.8,0,0,1,202.45,231.18Zm.38-1.83h0ZM187.3,210l14.48,18.06-1.49-13.18-7.37-8.34Z" fill="#093f68"></path><path d="M225.59,116.3C217.06,108.88,207.16,100,200,99c-6.37-.86-22.93,4.68-32,8.51,0,0-10.2,1.8-11.59,3.77s1.69,9.65,3.07,10.59,6.28-1.69,6.28-1.69,1.54,2,2.61,1.52,2.42-5.37,2.42-5.37c10.38-2.69,24.35-3.46,27.28-3.48,3.49,1.17,9.58,6.33,18.43,14a7,7,0,0,0,9.16-10.54Z" fill="#ffc9b0"></path><path d="M221,129.55a8,8,0,0,1-5.24-2c-8.65-7.52-14.6-12.57-17.94-13.78-2.73.05-16,.74-26.3,3.31-.68,2.3-1.66,4.91-2.8,5.45s-2.54-.41-3.28-1.18c-1.88.94-5.12,2.29-6.61,1.27s-3.16-5.27-3.68-8.17c-.32-1.77-.2-3,.36-3.82,1.49-2.11,9.51-3.7,12.12-4.16,9.05-3.8,25.76-9.44,32.44-8.54,7.12,1,16.5,9.14,24.78,16.36l1.39,1.21a8,8,0,0,1-4.07,13.92A7.67,7.67,0,0,1,221,129.55Zm-23-17.73a1.06,1.06,0,0,1,.31.05c3.67,1.23,9.54,6.19,18.78,14.22a6,6,0,1,0,7.85-9h0l-1.39-1.21c-8.07-7-17.21-15-23.74-15.89-6-.81-22,4.45-31.5,8.44a1.29,1.29,0,0,1-.21.07c-4.71.83-10.23,2.35-10.94,3.36-.93,1.32,1.69,8.37,2.81,9.19.54.26,3.05-.57,5.25-1.75a1,1,0,0,1,1.27.28,3.77,3.77,0,0,0,1.39,1.2,17.5,17.5,0,0,0,1.88-4.72,1,1,0,0,1,.71-.7c10.78-2.79,25.14-3.49,27.52-3.51Z" fill="#093f68"></path><path d="M285.57,119.37h-.08c-1.5-.05-2.83-1.31-3.95-3.73a1,1,0,0,1,.49-1.33,1,1,0,0,1,1.32.49c.87,1.87,1.71,2.55,2.2,2.57a.9.9,0,0,0,.61-.35,15.23,15.23,0,0,0-2.89-4.29,1,1,0,1,1,1.5-1.32c2.75,3.15,3.83,5.32,3.21,6.46A2.79,2.79,0,0,1,285.57,119.37Zm.6-2.28h0Z" fill="#093f68"></path><path d="M203.11,183a1,1,0,0,1-.56-.18c-.39-.26-9.61-6.57-13.39-11.79-3.93-5.41-3.2-10.1-3.16-10.3a1,1,0,0,1,2,.32c0,.07-.59,4.13,2.81,8.81,3.58,4.93,12.81,11.25,12.9,11.31a1,1,0,0,1-.57,1.83Z" fill="#fff"></path><path d="M172.45,134.83H129.66a1,1,0,0,1,0-2h42.79a1,1,0,0,1,0,2Z" fill="#dfeaef"></path><path d="M173.58,156.1H147.3a1,1,0,0,1,0-2h26.28a1,1,0,0,1,0,2Z" fill="#dfeaef"></path><path d="M147.3,177.37H124.12a1,1,0,0,1,0-2H147.3a1,1,0,0,1,0,2Z" fill="#dfeaef"></path><path d="M190.46,92.29h-39a1,1,0,0,1,0-2h39a1,1,0,0,1,0,2Z" fill="#dfeaef"></path></g></svg>