<svg width="347" height="214" viewBox="0 0 347 214" fill="none" xmlns="http://www.w3.org/2000/svg">
<path opacity="0.18" d="M342.038 180.812C339.123 188.547 334.642 195.932 327.98 200.83C320.486 206.308 310.953 208.226 301.684 209.157C290.192 210.308 278.608 210.209 267.137 208.861C255.293 207.481 243.624 204.774 231.736 203.788C190.101 200.337 148.64 218.185 107.18 213.08C74.1782 209.026 43.9047 190.191 22.8677 164.454C14.3312 154.226 7.53835 142.661 2.76209 130.225C1.92938 128.033 1.19527 125.842 0.57074 123.585C0.877529 123.278 1.18432 122.971 1.51302 122.676C38.4701 88.4686 89.3642 113.965 131.066 116.222C141.529 116.814 151.993 115.433 162.38 114.031L214.523 107.084C234.245 104.454 254.526 101.671 272.068 92.2048C277.185 89.4437 282.334 86.0471 288.141 85.8828C292.623 85.7622 296.907 87.5811 301.038 89.2574C312.551 93.8822 324.434 97.5291 336.559 100.159C338.017 104.411 339.408 108.673 340.668 112.979C341.063 114.337 341.457 115.707 341.819 117.088C347.461 138.048 349.675 160.597 342.038 180.812Z" fill="#00C0D0"/>
<path d="M150.919 126.85C149.933 130.06 148.651 133.621 145.616 135.057C144.488 135.422 143.389 135.873 142.329 136.404C141.343 137.062 140.686 138.464 141.387 139.417C141.902 139.964 142.609 140.29 143.359 140.327C145.62 140.712 147.914 140.873 150.207 140.809C151.38 140.856 152.545 140.603 153.593 140.075C154.838 139.151 155.774 137.871 156.277 136.404L160.013 128.253C162.062 123.793 164.111 119.334 165.722 114.699C166.916 111.281 167.146 97.1682 159.444 101.551C156.814 103.041 156.069 109.977 155.236 112.672L150.919 126.85Z" fill="#F8A486"/>
<path d="M162.785 113.647C162.819 115.649 163.036 117.645 163.432 119.608C163.732 119.462 163.998 119.255 164.213 119C164.428 118.746 164.587 118.449 164.681 118.128C165.872 115.308 166.533 112.292 166.631 109.232C166.66 109.029 166.625 108.822 166.533 108.64C166.424 108.484 166.277 108.36 166.105 108.278C164.167 107.126 162.15 106.111 160.068 105.243C159.071 104.827 157.745 104.52 157.055 105.342C156.817 105.665 156.659 106.041 156.595 106.438C156.27 107.18 156.105 107.983 156.113 108.793C156.299 109.527 157.307 110.075 157.866 110.503C158.425 110.93 162.785 113.351 162.785 113.647Z" fill="url(#paint0_linear_0_1)"/>
<path d="M155.861 138.289L146.679 138.859C145.891 138.949 145.093 138.923 144.312 138.782C143.923 138.706 143.554 138.547 143.231 138.316C142.908 138.086 142.638 137.789 142.439 137.445C142.364 137.243 142.256 137.054 142.121 136.886C141.955 136.759 141.76 136.675 141.553 136.642C141.346 136.61 141.135 136.63 140.938 136.7C139.397 137.025 137.982 137.785 136.862 138.892C136.619 139.077 136.425 139.319 136.296 139.595C136.166 139.872 136.105 140.175 136.117 140.48C136.248 141.291 137.212 141.642 138.001 141.839C140.74 142.529 143.589 143.208 146.372 142.759C147.801 142.358 149.272 142.13 150.755 142.08C150.58 142.606 150.481 143.34 150.996 143.57C151.186 143.622 151.387 143.622 151.577 143.57C152.707 143.419 153.827 143.196 154.929 142.902C155.061 142.54 155.817 138.289 155.861 138.289Z" fill="#282B2D"/>
<path d="M209.735 114.546C213.022 114.951 216.802 115.587 218.741 118.315C219.301 119.351 219.938 120.344 220.648 121.284C221.459 122.128 222.96 122.522 223.771 121.678C224.22 121.071 224.42 120.314 224.329 119.564C224.305 117.274 224.059 114.991 223.595 112.749C223.431 111.584 222.975 110.479 222.27 109.538C221.135 108.484 219.712 107.79 218.183 107.544L209.494 105.353C204.75 104.126 199.994 102.899 195.152 102.132C191.58 101.562 177.621 103.819 183.296 110.634C185.225 112.957 192.182 112.475 194.976 112.825L209.735 114.546Z" fill="#F8A486"/>
<path d="M186.485 108.925C188.457 109.495 190.374 110.283 192.39 110.667C194.407 111.151 196.53 110.883 198.362 109.911C198.712 109.712 199.027 109.456 199.293 109.155C199.644 108.73 199.875 108.22 199.962 107.676C199.97 107.545 200.016 107.42 200.093 107.314C200.201 107.214 200.341 107.156 200.488 107.15C201.59 107.161 202.692 107.062 203.775 106.854C204.503 106.567 205.172 106.148 205.747 105.616C206.043 105.375 206.371 105.002 206.185 104.663C206.114 104.571 206.025 104.495 205.923 104.441C205.821 104.386 205.709 104.353 205.593 104.345L199.644 103.052C197.22 102.341 194.675 102.147 192.171 102.482C191.127 102.733 190.108 103.078 189.125 103.512L186.036 104.794C185.486 104.983 184.982 105.285 184.556 105.682C184.267 106.017 184.062 106.417 183.96 106.848C183.857 107.279 183.858 107.728 183.965 108.158C184.326 108.87 185.784 108.728 186.485 108.925Z" fill="url(#paint1_linear_0_1)"/>
<path d="M166.083 11.4974C165.637 10.2156 165.478 8.85112 165.618 7.50098C165.758 6.15084 166.194 4.8481 166.894 3.68526C167.461 2.63297 168.398 1.82859 169.524 1.42816C170.317 1.29267 171.119 1.22305 171.923 1.21999C172.957 1.0735 173.976 0.838899 174.969 0.518756C177.48 -0.162909 180.128 -0.162909 182.639 0.518756C185.133 1.20626 187.301 2.76009 188.753 4.90145C188.932 5.21409 189.137 5.51098 189.366 5.78895C189.758 6.17909 190.2 6.51448 190.681 6.78601C193.539 8.64727 195.652 11.4523 196.653 14.712C197.654 17.9717 197.48 21.4794 196.16 24.6236C195.281 26.2492 194.579 27.9647 194.067 29.7404C193.607 32.2385 194.56 34.7476 195.02 37.2458C195.48 39.7439 195.261 42.7241 193.179 44.2143C192.058 44.9037 190.743 45.2112 189.432 45.0908C185.816 44.9593 182.124 42.8994 180.886 39.47C180.79 39.1437 180.662 38.8279 180.502 38.5277C179.856 37.432 178.443 37.2786 177.215 37.0266C176.413 36.9116 175.644 36.6299 174.957 36.1997C174.27 35.7694 173.681 35.2002 173.227 34.5285C172.911 33.9132 172.697 33.2509 172.592 32.5672C172.121 30.256 171.89 27.9025 171.901 25.544C171.965 24.7055 171.895 23.8622 171.693 23.0458C171.151 21.7687 170.31 20.6411 169.239 19.7588C168.207 18.8195 167.415 17.6475 166.927 16.3403C166.695 15.3259 166.531 14.2974 166.434 13.2614C166.228 12.0971 165.804 10.982 165.185 9.97442" fill="#551D11"/>
<path d="M171.058 34.9668C170.937 36.0624 170.882 37.4101 171.737 38.1442C172.44 38.6111 173.288 38.8094 174.126 38.703H176.492C177.028 38.7448 177.566 38.6545 178.059 38.4401C178.512 38.0831 178.885 37.6357 179.155 37.1263C179.425 36.6168 179.585 36.0567 179.626 35.4817C179.691 33.7565 179.982 32.0473 180.491 30.3978C181.193 28.579 182.168 26.8917 182.935 25.0947C181.721 24.9805 180.501 25.2405 179.44 25.8398C178.344 26.3767 177.347 27.056 176.229 27.5052C175.112 27.9545 173.457 27.8339 172.34 28.3489C171.222 28.8639 171.562 29.9924 171.496 30.9895C171.408 32.3043 171.2 33.641 171.058 34.9668Z" fill="#F8A486"/>
<path d="M166.292 14.8831C165.525 18.3564 163.224 21.6872 163.903 25.1824C164.13 26.272 164.634 27.2845 165.367 28.1215C166.101 28.9586 167.038 29.5917 168.088 29.9595C169.929 30.5731 171.934 30.3102 173.874 30.343C175.099 30.4609 176.335 30.4018 177.544 30.1677C179.812 29.5432 181.291 27.4285 182.573 25.4563C182.999 25.8529 183.514 26.14 184.076 26.2927C184.637 26.4454 185.227 26.4592 185.795 26.3329C186.362 26.1935 186.889 25.9225 187.332 25.5418C187.776 25.1611 188.124 24.6814 188.347 24.1415C188.514 23.8003 188.601 23.4255 188.601 23.0458C188.601 22.6661 188.514 22.2914 188.347 21.9502C188.17 21.6243 187.877 21.3762 187.527 21.2547C187.176 21.1331 186.793 21.1467 186.452 21.2928C187.126 19.5841 187.497 17.771 187.548 15.9349C187.595 14.9927 187.511 14.0485 187.296 13.13C186.878 11.8124 186.168 10.6061 185.22 9.6007C184.271 8.5953 183.108 7.81672 181.817 7.32291C179.248 6.33941 176.515 5.85234 173.764 5.88757C172.286 5.76749 170.798 5.93112 169.381 6.36967C165.536 7.8817 167.004 11.6727 166.292 14.8831Z" fill="#F8A486"/>
<path d="M176.481 7.00515C176.755 7.7283 176.733 8.61579 177.303 9.14172C178.399 10.1607 180.338 8.91163 181.554 9.7553C183.077 10.7852 181.719 13.6559 183.143 14.8173C183.397 14.9679 183.623 15.1606 183.811 15.3871C183.909 15.6285 183.917 15.8966 183.835 16.1436C183.752 16.3905 183.585 16.6001 183.362 16.7347C182.913 17.0027 182.498 17.3226 182.124 17.688C181.877 18.1097 181.796 18.6087 181.897 19.087C181.998 19.5654 182.275 19.9886 182.672 20.2738C183.491 20.818 184.461 21.0902 185.444 21.0517C186.424 21.0182 187.403 21.1364 188.347 21.4023C188.95 21.6105 189.684 21.9611 190.144 21.5228C190.296 21.3624 190.405 21.1665 190.462 20.9531C190.972 19.3534 191.151 17.6666 190.987 15.9955C190.823 14.3245 190.32 12.7045 189.509 11.2345C187.841 8.28794 185.151 6.05448 181.949 4.95624C179.341 4.05779 174.904 3.10455 172.307 3.86057C172.756 5.7013 175.703 4.94529 176.481 7.00515Z" fill="#551D11"/>
<path d="M166.138 37.9689C165.392 39.355 165.015 40.9094 165.042 42.4831C164.648 48.6189 164.44 54.7766 164.407 60.9233C164.407 63.5967 164.549 66.5879 166.511 68.4177C168.067 69.864 170.356 70.1489 172.471 70.2365C174.953 70.3445 177.44 70.2713 179.911 70.0174C182.288 69.7654 184.852 69.2504 186.386 67.4316C188.063 65.4484 187.997 62.5887 187.854 60.0029C187.65 56.1754 187.434 52.3478 187.208 48.5202C187.033 45.4524 186.814 42.253 185.214 39.6343C184.011 37.7994 182.678 36.0528 181.226 34.408C180.13 33.0603 180.941 33.0822 179.231 33.2356C178.311 33.5432 177.41 33.9092 176.536 34.3313C173.172 35.3064 168.319 34.5942 166.138 37.9689Z" fill="#00C0D0"/>
<path d="M168.899 42.001C168.693 41.5639 168.411 41.167 168.067 40.8286C167.738 40.5621 167.368 40.3511 166.971 40.2041C166.346 39.9411 165.7 39.6891 165.053 39.47C164.845 40.3119 164.845 41.1919 165.053 42.0338C165.262 43.1295 165.525 44.28 165.82 45.3757C166.001 46.3535 166.453 47.2609 167.124 47.9943C167.561 48.3537 168.058 48.632 168.592 48.8161C169.351 49.1101 170.136 49.3302 170.937 49.4735C171.084 49.5177 171.24 49.5177 171.386 49.4735C171.682 49.3091 171.792 48.4435 171.759 48.1368C171.571 47.4138 171.276 46.7231 170.882 46.0879C170.302 44.6854 169.622 43.3267 168.899 42.001Z" fill="url(#paint2_linear_0_1)"/>
<path d="M170.598 66.7852C167.157 66.0292 163.728 68.4835 161.953 71.5185C160.178 74.5535 159.597 78.0925 158.534 81.4672C157.096 86.0355 154.76 90.2708 151.664 93.925C149.166 96.8614 146.274 98.7131 143.37 101.244C146.23 105.769 153.001 105.002 157.8 107.369C160.265 108.574 162.457 110.733 165.196 110.776C167.716 110.776 169.995 109.012 172.515 109.067C174.641 109.067 176.58 110.481 178.706 110.448C181.631 110.448 184.184 107.774 187.076 108.256C188.123 108.544 189.137 108.94 190.101 109.44C191.529 109.986 193.075 110.149 194.586 109.912C196.097 109.676 197.519 109.048 198.713 108.092L196.291 103.173C196.43 103.888 196.787 104.542 197.313 105.046C197.838 105.551 198.507 105.88 199.228 105.988C200.671 106.182 202.139 106.066 203.534 105.649C199.808 92.8951 195.477 80.346 190.539 68.0014C190.232 66.9959 189.661 66.0915 188.884 65.3827C187.657 64.4623 185.959 64.6486 184.436 64.8677C179.757 65.5799 175.254 67.7713 170.598 66.7852Z" fill="#00C0D0"/>
<path d="M203.566 105.649C202.171 106.066 200.704 106.182 199.26 105.988C198.467 105.837 197.736 105.456 197.157 104.893L198.756 108.18C197.56 109.142 196.131 109.773 194.614 110.009C193.097 110.246 191.544 110.08 190.111 109.527C189.15 109.023 188.136 108.626 187.087 108.344C184.206 107.851 181.609 110.535 178.706 110.535C176.58 110.535 174.641 109.188 172.515 109.144C169.995 109.089 167.727 110.897 165.207 110.853C162.457 110.853 160.276 108.662 157.811 107.446C156.956 107.034 156.065 106.704 155.149 106.46C150.766 105.189 145.737 105.057 143.37 101.321C146.285 98.7898 149.177 96.9381 151.664 94.0017C154.761 90.3505 157.1 86.1193 158.545 81.5548C159.641 78.1911 160.178 74.6411 161.953 71.6061C163.728 68.5711 167.168 66.1277 170.598 66.8618C175.254 67.8808 179.757 65.6566 184.48 64.9554C185.992 64.7253 187.701 64.539 188.928 65.4594C189.704 66.1711 190.272 67.0799 190.572 68.089C195.232 79.7178 199.348 91.5437 202.92 103.567C203.095 104.202 203.358 104.926 203.566 105.649Z" fill="url(#paint3_linear_0_1)"/>
<path d="M186.934 56.4749C187.002 57.1176 186.855 57.7646 186.518 58.3156C186.101 58.913 185.545 59.3998 184.898 59.7339C184.251 60.068 183.532 60.2393 182.803 60.233C181.349 60.2055 179.909 59.939 178.541 59.4441L174.093 58.0965C173.908 58.0095 173.706 57.9644 173.501 57.9644C173.297 57.9644 173.095 58.0095 172.909 58.0965C172.751 58.2499 172.63 58.437 172.554 58.6437C172.478 58.8504 172.45 59.0716 172.471 59.2908C172.287 62.0346 171.38 64.6808 169.842 66.9605C172.058 67.4328 174.333 67.5732 176.591 67.3768C175.395 68.0824 174.092 68.5894 172.734 68.8779C172.268 68.9254 171.826 69.1083 171.463 69.4038C171.26 69.6538 171.114 69.9456 171.036 70.2585L169.94 73.6222C169.381 75.3753 167.935 76.4271 166.379 77.4132L163.015 79.5498C161.92 80.251 160.605 80.9742 159.378 80.5469L158.523 70.4228C158.238 68.0684 158.238 65.6882 158.523 63.3338C158.885 61.4076 159.466 59.5291 160.254 57.7349C161.065 55.7335 161.942 53.7613 162.884 51.8183C163.202 51.1609 163.596 50.4377 164.297 50.2405C164.728 50.1564 165.173 50.1828 165.59 50.3172C171.069 51.6101 176.284 53.9548 181.861 54.426C183.719 54.5856 185.486 55.2994 186.934 56.4749V56.4749Z" fill="url(#paint4_linear_0_1)"/>
<path d="M168.91 25.8836C169.223 26.1511 169.588 26.3507 169.983 26.4695C170.377 26.5883 170.791 26.6239 171.2 26.5739C171.487 26.5907 171.774 26.5686 172.055 26.5081C172.371 26.4023 172.664 26.2389 172.92 26.026C173.369 25.6868 173.774 25.2929 174.126 24.8537C174.36 24.5959 174.526 24.2831 174.608 23.9443C174.649 23.7755 174.636 23.5982 174.571 23.4371C174.506 23.276 174.393 23.1392 174.246 23.0458C174.091 22.9772 173.923 22.94 173.753 22.9362C172.548 22.8267 169.885 22.1474 168.79 22.6952C167.694 23.243 168.329 25.2043 168.91 25.8836Z" fill="#FEFFFF"/>
<path d="M159.696 50.0213C161.438 50.0213 162.851 48.6086 162.851 46.8658C162.851 45.123 161.438 43.7103 159.696 43.7103C157.953 43.7103 156.54 45.123 156.54 46.8658C156.54 48.6086 157.953 50.0213 159.696 50.0213Z" fill="white"/>
<path d="M180.081 39.5207C180.081 39.937 180.081 40.3643 180.081 40.8026C180.058 42.2765 179.889 43.7446 179.577 45.1853C179.551 45.373 179.484 45.5526 179.38 45.7112C179.137 45.9589 178.807 46.1007 178.46 46.1057C172.598 46.774 167.021 43.7281 161.915 40.7917L157.708 38.3702C157.28 38.8742 157.642 39.6412 158.036 40.1562C158.431 40.6711 158.913 41.3285 158.65 41.9311C158.387 42.5338 157.554 42.6433 156.919 42.6433C154.334 42.6329 151.753 42.4462 149.194 42.0845C149.07 42.2098 149 42.3791 149 42.5557C149 42.7322 149.07 42.9016 149.194 43.0268C149.452 43.2704 149.769 43.4407 150.115 43.5199C152.211 44.1919 154.326 44.7653 156.459 45.2401C154.784 45.3148 153.115 45.4941 151.462 45.777C150.898 45.8384 150.353 46.0176 149.863 46.3029C149.622 46.4526 149.43 46.6689 149.309 46.9255C149.188 47.1822 149.145 47.4682 149.183 47.7492C151.602 47.9681 154.031 48.0559 156.459 48.0121C154.312 48.4984 152.315 49.4986 150.641 50.9266C152.832 51.8908 155.363 50.3131 157.719 50.6746C156.729 50.8826 155.796 51.3027 154.985 51.9062C154.173 52.5096 153.502 53.2819 153.018 54.1698C153.613 54.3474 154.242 54.3824 154.853 54.272C155.464 54.1616 156.04 53.9089 156.535 53.5344C157.519 52.781 158.594 52.1551 159.735 51.6717C160.83 51.3101 162.123 51.4197 163.153 50.8609C163.627 50.5071 164.147 50.2195 164.698 50.0063C165.146 49.9406 165.602 49.9742 166.035 50.1049C171.075 51.343 175.534 54.4876 180.629 55.4956C182.36 55.8462 185.516 56.1311 186.327 54.1808C187.138 52.2305 187.422 49.3379 187.97 47.1356C188.32 46.0014 188.472 44.8153 188.419 43.6294C188.223 42.3969 187.807 41.2095 187.192 40.1233C186.734 39.0437 186.088 38.0534 185.286 37.1978C183.774 35.7735 181.604 35.3461 180.509 37.4498C180.193 38.0928 180.046 38.8053 180.081 39.5207Z" fill="#F8A486"/>
<path d="M220.122 107.665L222.313 116.606C222.54 117.366 222.655 118.156 222.653 118.95C222.648 119.346 222.557 119.736 222.387 120.094C222.217 120.451 221.971 120.768 221.667 121.021C221.481 121.133 221.315 121.273 221.174 121.437C221.077 121.623 221.026 121.83 221.026 122.04C221.026 122.25 221.077 122.457 221.174 122.643C221.76 124.097 222.748 125.355 224.023 126.269C224.249 126.475 224.521 126.623 224.817 126.701C225.113 126.779 225.423 126.785 225.721 126.719C226.499 126.445 226.674 125.448 226.729 124.626C226.915 121.799 227.091 118.885 226.148 116.222C225.499 114.879 225.013 113.463 224.702 112.004C225.25 112.091 225.995 112.004 226.126 111.511C226.154 111.314 226.127 111.113 226.05 110.93C225.71 109.839 225.292 108.773 224.801 107.741C224.439 107.698 220.133 107.709 220.122 107.665Z" fill="#282B2D"/>
<path d="M203.566 105.649C202.171 106.066 200.704 106.182 199.26 105.988C198.467 105.837 197.736 105.456 197.157 104.893L198.756 108.18C197.56 109.142 196.131 109.773 194.614 110.009C193.097 110.246 191.544 110.08 190.112 109.527C189.15 109.023 188.136 108.626 187.087 108.344C184.206 107.851 181.609 110.535 178.706 110.535C176.58 110.535 174.641 109.188 172.515 109.144C169.995 109.089 167.727 110.897 165.207 110.853C162.457 110.853 160.276 108.662 157.811 107.446C156.956 107.034 156.065 106.704 155.149 106.46C154.053 103.173 156.934 99.1733 159.63 95.5028C165.523 87.372 170.043 78.3295 173.008 68.7355C171.632 80.2018 168.336 91.3546 163.257 101.726C162.8 102.456 162.589 103.312 162.654 104.17C162.996 105.125 163.695 105.91 164.604 106.361C165.935 107.372 167.45 108.116 169.064 108.552C169.873 108.764 170.727 108.739 171.523 108.48C172.319 108.222 173.024 107.741 173.556 107.095C174.071 106.206 174.367 105.207 174.421 104.181C175.064 99.323 175.714 94.4655 176.372 89.608C176.446 93.3162 176.813 97.0127 177.467 100.663C177.623 101.79 177.995 102.877 178.563 103.863C180.568 106.975 185.137 106.613 188.797 105.879C188.315 92.4568 180.294 80.24 179.462 66.8399L189.323 66.4236C192.127 79.3772 196.71 91.8805 202.942 103.578C203.095 104.202 203.358 104.926 203.566 105.649Z" fill="url(#paint5_linear_0_1)"/>
<path d="M151.27 142.617L143.852 143.965C142.362 144.063 136.643 146.671 138.122 146.912C151.927 149.169 172.088 141.653 185.236 147.131L182.036 150.002C203.413 152.456 225.381 154.866 246.155 149.289C247.251 147.799 245.87 145.718 244.304 144.731C242.737 143.745 240.786 143.055 240.041 141.357C238.727 138.333 242.331 134.355 239.132 131.912C238.514 131.477 237.796 131.206 237.045 131.123C236.294 131.041 235.534 131.15 234.837 131.441C221.108 136.645 206.108 135.506 191.514 135.166C177.676 134.838 163.103 135.484 151.237 142.617" fill="url(#paint6_linear_0_1)"/>
<path opacity="0.18" d="M342.038 180.812C339.123 188.548 334.642 195.932 327.98 200.83C320.486 206.308 310.953 208.226 301.684 209.157C290.192 210.308 278.608 210.209 267.137 208.861C255.293 207.481 243.624 204.774 231.736 203.788C190.101 200.337 148.64 218.185 107.18 213.08C74.1782 209.026 43.9047 190.191 22.8677 164.454C14.3312 154.226 7.53836 142.661 2.7621 130.225C20.6031 119.533 40.9558 113.753 61.7532 113.472L53.7329 129.973C56.9651 127.705 61.0301 132.076 61.4026 135.999C61.7751 139.921 60.9096 144.381 63.3858 147.471C64.7596 148.889 66.3924 150.031 68.1958 150.834C73.9152 154.121 78.5061 159.019 84.1269 162.427C88.8181 165.063 93.8406 167.06 99.0609 168.365C119.327 174.088 140.36 176.623 161.405 175.881C178.859 175.257 196.97 172.474 213.34 178.544C234.048 157.726 273.175 171.006 290.541 147.306C295.417 140.656 298.879 131.046 307.075 130.137L290.431 158.986C301.991 161.572 314.109 154.154 319.938 143.833C325.767 133.512 326.381 121.043 325.11 109.264C331.05 110.96 336.68 113.598 341.786 117.077C347.461 138.048 349.675 160.597 342.038 180.812Z" fill="#00C0D0"/>
<defs>
<linearGradient id="paint0_linear_0_1" x1="166.434" y1="103.468" x2="158.436" y2="115.455" gradientUnits="userSpaceOnUse">
<stop offset="0.01"/>
<stop offset="0.13" stop-opacity="0.69"/>
<stop offset="1" stop-opacity="0"/>
</linearGradient>
<linearGradient id="paint1_linear_0_1" x1="5490.48" y1="1684.02" x2="5501.2" y2="1788.38" gradientUnits="userSpaceOnUse">
<stop offset="0.01"/>
<stop offset="0.13" stop-opacity="0.69"/>
<stop offset="1" stop-opacity="0"/>
</linearGradient>
<linearGradient id="paint2_linear_0_1" x1="1614.95" y1="1371.83" x2="1658.08" y2="1371.83" gradientUnits="userSpaceOnUse">
<stop offset="0.01"/>
<stop offset="0.13" stop-opacity="0.69"/>
<stop offset="1" stop-opacity="0"/>
</linearGradient>
<linearGradient id="paint3_linear_0_1" x1="15437.5" y1="8172.33" x2="10232.6" y2="7406.22" gradientUnits="userSpaceOnUse">
<stop offset="0.01"/>
<stop offset="0.13" stop-opacity="0.69"/>
<stop offset="1" stop-opacity="0"/>
</linearGradient>
<linearGradient id="paint4_linear_0_1" x1="6033.35" y1="4678.63" x2="6782.02" y2="4678.63" gradientUnits="userSpaceOnUse">
<stop offset="0.01"/>
<stop offset="0.13" stop-opacity="0.69"/>
<stop offset="1" stop-opacity="0"/>
</linearGradient>
<linearGradient id="paint5_linear_0_1" x1="10575.2" y1="5328.32" x2="11054.3" y2="8976.78" gradientUnits="userSpaceOnUse">
<stop offset="0.01"/>
<stop offset="0.13" stop-opacity="0.69"/>
<stop offset="1" stop-opacity="0"/>
</linearGradient>
<linearGradient id="paint6_linear_0_1" x1="17544.5" y1="7974.04" x2="18056.7" y2="3345.51" gradientUnits="userSpaceOnUse">
<stop offset="0.01"/>
<stop offset="0.13" stop-opacity="0.69"/>
<stop offset="1" stop-opacity="0"/>
</linearGradient>
</defs>
</svg>
